<svg width="469" height="37" viewBox="0 0 469 37" fill="none" xmlns="http://www.w3.org/2000/svg">
<path d="M1 10.5898C3.0139 15.5406 5.23723 30.3301 7.22222 25.3676C8.33223 22.5925 13 8.00881 13 16.5342C13 18.8271 13.7302 21.2013 14.0556 23.4787C14.3621 25.6244 17.2516 18.8294 18 18.0342C18.6566 17.3366 20.4409 14.4295 20.7778 15.2565C21.5894 17.2486 22.4725 19.1727 23.3333 21.1453C23.667 21.9099 23.8649 26.7291 24.6111 26.812C27.9243 27.1801 28.5636 13.7347 29 21.5898C29.3509 27.9061 39.7236 7.49694 39.9444 10.4787C40.2274 14.299 40 18.2018 40 22.0342C40 28.2169 43.4323 22.1714 45.3333 19.2565C47.1145 16.5253 49.7342 9.94731 52.7778 8.25645C52.9316 8.17101 53 12.4753 53 12.5898C53 14.9231 53 17.2565 53 19.5898C53 24.6639 53 29.7379 53 34.812C53 40.6127 57.84 27.5306 58.4444 26.2009C58.8492 25.3105 63.7524 15.4677 63.9444 16.812C64.7853 22.6979 67.871 20.8612 71.3333 16.3676C72.2299 15.204 78.8834 5.79717 79 8.47868C79.1358 11.6017 79.4449 13.4803 80.0556 15.9231C81.3896 21.2594 80.823 37.8102 86.2222 25.812C87.3986 23.1977 87.7239 21.019 89.2222 22.3676C91.9243 24.7994 94.6543 17.3059 95.8889 16.5342C96.023 16.4504 97.9079 22.1556 99.5 21.9787C101.812 21.7217 102.874 17.7233 105.778 19.5898C109.401 21.9193 107.78 25.9402 112.222 20.5898C113.96 18.4963 115.372 16.0134 117.222 14.0342C120.431 10.6015 119.954 17.37 120.111 18.9787C120.311 21.0289 122.526 28.4787 125.5 28.4787C127.342 28.4787 129.26 22.8844 130 21.5898" stroke="black" stroke-linecap="round" stroke-linejoin="round"/>
<path d="M162.094 19.256C162.28 20.495 162.834 32.7325 165.816 30.9783C171.119 27.8588 172.886 21.0247 177.872 17.7005C179.281 16.7611 181.152 16.3461 182.65 15.5894C188.959 12.4015 192.88 7.69245 197.761 2.8116C200.568 0.00470626 199.68 3.06794 198.983 4.8116C197.01 9.74306 194.667 14.6074 192.539 19.4783C191.866 21.0164 185.801 33.0713 189.205 25.5338C190.57 22.5125 191.89 19.5404 194.039 16.9783C194.374 16.578 197.542 11.7658 195.65 14.3672C193.564 17.2349 192.687 20.7864 192.316 24.256C192.093 26.3482 193.058 31.15 191.927 33.0338C190.772 34.9592 174.53 18.9708 172.872 17.5894C172.274 17.0909 164.751 14.7278 168.705 14.3116C172.075 13.9569 174.645 16.1295 177.316 17.8116C179.566 19.228 182.963 19.8571 185.539 20.2005C190.296 20.8348 190.321 19.0225 193.427 14.9227C193.809 14.4195 203.64 0.218229 205.039 1.03382C208.811 3.2343 204.75 15.9949 204.316 19.3672C203.679 24.3269 203.173 39.2821 204.094 34.3672C204.707 31.099 208.282 28.9125 209.094 25.256C209.363 24.046 209.677 19.6356 211.094 21.4783C214.859 26.3728 219.413 26.3668 224.372 29.2005C228.942 31.812 228.402 25.3137 228.872 22.1449C230.484 11.2654 228.518 27.0038 229.094 26.8116C234.21 25.1063 235.38 16.8211 239.316 24.256C240.699 26.8687 247.906 24.943 249.594 23.9783C251.09 23.1234 260.36 13.5242 255.872 20.256C252.7 25.0132 255.842 23.6189 258.539 20.9227C260.373 19.0882 262.759 24.0608 263.316 25.4783C263.888 26.9334 266.092 31.8063 268.261 31.5894C273.098 31.1057 274.339 22.9618 278.65 22.7005C283.134 22.4287 286.918 21.6429 290.316 17.7005C292.024 15.7197 292.094 8.79178 292.094 14.256C292.094 16.9227 292.094 19.5894 292.094 22.256C292.094 25.9872 295.605 22.0114 296.761 21.256C300.112 19.0647 303.883 19.4628 304.094 23.256C304.31 27.1489 308.921 22.26 310.427 22.5338C312.119 22.8413 310.861 30.1512 312.983 29.5894C315 29.0554 318.773 24.2045 320.594 24.8116C322.387 25.4091 324.209 25.256 326.094 25.256C329.307 25.256 332.59 28.2135 335.872 29.0338C339.88 30.0358 340.861 24.7859 343.539 23.256C344.57 22.6668 343.953 27.1196 344.539 28.256C347.668 34.3306 353.492 22.1505 355.316 20.4783C357.488 18.4872 359.78 23.2797 360.039 24.7005C360.484 27.1486 360.158 27.5334 363.205 27.0338C368.934 26.0947 373.285 22.8215 376.539 18.0894C377.862 16.1644 378.094 8.91999 378.094 11.256C378.094 14.4298 378.094 25.059 378.094 24.8116C378.094 19.3355 376.861 14.3248 376.039 8.97827C375.799 7.424 374.268 9.69243 374.094 9.97827C371.889 13.6014 371.52 18.2015 370.094 22.1449C369.65 23.3729 364.293 35.597 367.761 30.4783C370.076 27.0612 372.389 18.3307 376.094 16.4783C379.922 14.5642 376.772 25.4171 381.094 23.256C382.857 22.3748 386.265 20.7668 387.539 19.3116C388.16 18.6008 388.094 26.7054 388.094 27.8116C388.094 36.8608 394.771 28.0308 398.316 25.256C400.495 23.5512 395.674 27.0009 394.594 28.2005C392.228 30.8298 393.094 30.7122 393.094 26.7005C393.094 25.8141 394.105 21.2845 393.483 21.4227C391.368 21.8928 388.771 25.0656 388.316 27.0338C387.459 30.7508 388.094 24.4458 388.094 23.2005C388.094 18.187 388.094 24.3756 388.094 26.0338C388.094 33.501 391.895 20.1378 390.65 19.4783C381.064 14.4037 367.899 27.0466 360.761 31.5894C352.366 36.9315 362.463 21.1449 359.094 21.1449C358.248 21.1449 358.545 22.7622 358.094 23.4783C357.447 24.5062 356.603 25.5116 356.15 26.6449C355.327 28.702 356.489 20.6906 354.316 20.256C348.695 19.1319 344.275 24.855 344.094 30.8116C344.047 32.3797 347.014 18.5681 343.872 20.7005C341.46 22.3374 336.89 26.128 336.15 29.0894C335.594 31.3115 336.388 24.4948 336.872 22.256C337.818 17.8806 337.094 12.7651 337.094 8.3116C337.094 0.062933 333.643 9.48578 331.872 12.4783C330.988 13.9721 327.265 22.7539 326.15 23.3116C322.593 25.0897 331.042 13.5516 327.65 11.4783C324.424 9.50697 318.528 22.2051 317.316 24.0894C315.554 26.8305 314.355 29.5984 315.872 24.4783C316.861 21.139 313.793 22.9068 312.094 23.756C306.878 26.364 306.686 25.3823 304.316 19.5894C303.396 17.3386 302.474 16.1875 300.65 15.1449C298.397 13.8575 299.961 12.9488 297.316 16.0338C296.277 17.2459 296.426 23.4461 294.983 23.0338C291.908 22.1552 289.706 18.9291 287.094 17.4783C286.269 17.0198 283.53 16.8856 283.094 17.8672C281.009 22.5585 278.731 22.3729 273.65 22.256C271.402 22.2044 250.229 15.2631 250.094 19.7005C250.035 21.6591 250.094 23.6291 250.094 25.5894C250.094 27.7005 250.2 21.3645 250.094 19.256C249.952 16.415 244.786 13.9513 243.205 11.8672C240.402 8.17204 240.283 8.08904 238.872 12.1449C238.541 13.0968 236.236 24.4547 235.372 23.9227C229.405 20.2506 224.072 15.0934 217.983 11.3672C209.72 6.31089 214.36 15.6184 216.316 15.256C220.047 14.5652 222.637 7.22849 223.983 4.20049C226.623 -1.73938 219.618 16.5718 216.094 22.0338C211.633 28.9485 217.261 16.7257 211.427 17.256C206.303 17.7219 204.2 23.5692 199.15 24.2005C195.688 24.6332 196.223 22.7171 194.094 20.7005C188.825 15.7082 185.097 29.8084 182.872 32.0338C182.583 32.3229 170.897 16.8669 165.094 19.4783C160.083 21.7331 161.672 31.1522 155.316 29.0338C150.249 27.3446 146.756 22.4032 140.761 24.4783C137.172 25.7206 138.479 26.2387 133.816 23.5894C130.01 21.4269 123.468 14.7706 119.094 14.256C118.285 14.1608 122.917 16.256 124.594 16.256C129.137 16.256 130.587 14.4681 134.316 13.0338C140.306 10.7299 137.542 15.4974 142.094 16.256C146.213 16.9425 153.86 21.9045 156.094 25.256" stroke="black" stroke-linecap="round" stroke-linejoin="round"/>
<path d="M1 18C171.916 18 270.044 18 436 18" stroke="black"/>
<path d="M468.5 18.5C468.5 27.917 461.309 35.5 452.5 35.5C443.691 35.5 436.5 27.917 436.5 18.5C436.5 9.08303 443.691 1.5 452.5 1.5C461.309 1.5 468.5 9.08303 468.5 18.5Z" stroke="black"/>
</svg>
