<svg width="456" height="42" fill="none" xmlns="http://www.w3.org/2000/svg"><path d="M0 22h452m0 0L417 4m35 18l-35 18" stroke="#000" stroke-width="3"/><path d="M6 13c2.014 4.95 4.237 19.74 6.222 14.778C13.332 25.003 18 10.419 18 18.944c0 2.293.73 4.668 1.056 6.945.306 2.146 3.196-4.65 3.944-5.445.657-.697 2.44-3.604 2.778-2.777.811 1.992 1.695 3.916 2.555 5.889.334.764.532 5.583 1.278 5.666C32.924 29.59 33.564 16.145 34 24c.35 6.316 10.724-14.093 10.944-11.111.283 3.82.056 7.723.056 11.555 0 6.183 3.432.138 5.333-2.777 1.782-2.732 4.401-9.31 7.445-11C57.932 10.58 58 14.886 58 15v22.222c0 5.8 4.84-7.281 5.444-8.61.405-.891 5.308-10.734 5.5-9.39.841 5.886 3.927 4.05 7.39-.444.896-1.164 7.55-10.57 7.666-7.89.136 3.124.445 5.003 1.056 7.445 1.334 5.337.767 21.887 6.166 9.89 1.177-2.615 1.502-4.794 3-3.445 2.702 2.432 5.432-5.062 6.667-5.834.134-.083 2.019 5.622 3.611 5.445 2.312-.257 3.374-4.255 6.278-2.389 3.623 2.33 2.002 6.35 6.444 1 1.738-2.093 3.15-4.576 5-6.556 3.209-3.432 2.732 3.336 2.889 4.945.2 2.05 2.415 9.5 5.389 9.5 1.842 0 3.76-5.594 4.5-6.889" stroke="#000" stroke-linecap="round" stroke-linejoin="round"/><path d="M135 19c.186 1.239.74 13.477 3.722 11.722 5.303-3.12 7.07-9.953 12.056-13.278 1.409-.939 3.28-1.354 4.778-2.11 6.309-3.189 10.23-7.898 15.111-12.778 2.807-2.807 1.919.256 1.222 2-1.973 4.931-4.316 9.795-6.445 14.666-.672 1.538-6.737 13.593-3.333 6.056 1.365-3.021 2.685-5.994 4.833-8.556.336-.4 3.503-5.212 1.612-2.61-2.086 2.867-2.963 6.418-3.334 9.888-.223 2.092.742 6.894-.389 8.778-1.155 1.925-17.397-14.063-19.055-15.445-.598-.498-8.121-2.861-4.167-3.277 3.369-.355 5.94 1.818 8.611 3.5 2.25 1.416 5.647 2.045 8.222 2.388 4.758.635 4.782-1.177 7.889-5.277.382-.504 10.213-14.705 11.611-13.89 3.773 2.201-.288 14.962-.722 18.334-.637 4.96-1.144 19.915-.222 15 .613-3.268 4.187-5.454 5-9.111.269-1.21.583-5.62 2-3.778 3.765 4.895 8.319 4.889 13.278 7.722 4.57 2.612 4.03-3.886 4.5-7.055 1.612-10.88-.355 4.859.222 4.667 5.116-1.706 6.286-9.99 10.222-2.556 1.383 2.613 8.59.687 10.278-.278 1.496-.855 10.766-10.454 6.278-3.722-3.172 4.757-.03 3.363 2.666.667 1.835-1.835 4.221 3.138 4.778 4.555.572 1.455 2.776 6.328 4.945 6.111 4.837-.483 6.078-8.627 10.389-8.889 4.484-.271 8.268-1.057 11.666-5C264.93 15.464 265 8.536 265 14v8c0 3.731 3.511-.245 4.667-1 3.351-2.191 7.122-1.793 7.333 2 .216 3.893 4.827-.996 6.333-.722 1.692.307.434 7.617 2.556 7.055 2.017-.534 5.79-5.384 7.611-4.777 1.792.597 3.614.444 5.5.444 3.213 0 6.496 2.957 9.778 3.778 4.008 1.002 4.989-4.248 7.666-5.778 1.032-.59.415 3.864 1 5 3.13 6.075 8.954-6.105 10.778-7.778 2.172-1.99 4.464 2.802 4.722 4.222.446 2.449.12 2.833 3.167 2.334 5.729-.94 10.08-4.212 13.333-8.945C350.768 15.908 351 8.664 351 11v13.556c0-5.477-1.233-10.487-2.056-15.834-.239-1.554-1.77.714-1.944 1-2.205 3.623-2.574 8.223-4 12.167-.444 1.228-5.801 13.452-2.333 8.333 2.314-3.417 4.628-12.147 8.333-14 3.828-1.914.678 8.94 5 6.778 1.763-.881 5.171-2.49 6.444-3.944.622-.711.556 7.393.556 8.5 0 9.049 6.677.219 10.222-2.556 2.179-1.705-2.642 1.745-3.722 2.944-2.366 2.63-1.5 2.512-1.5-1.5 0-.886 1.011-5.416.389-5.277-2.115.47-4.713 3.643-5.167 5.61-.858 3.718-.222-2.587-.222-3.833v2.834c0 7.467 3.801-5.896 2.556-6.556-9.586-5.074-22.751 7.569-29.889 12.111-8.395 5.343 1.702-10.444-1.667-10.444-.846 0-.549 1.617-1 2.333-.647 1.028-1.491 2.034-1.944 3.167-.823 2.057.339-5.954-1.834-6.389-5.621-1.124-10.041 4.599-10.222 10.556-.048 1.568 2.92-12.244-.222-10.112-2.412 1.637-6.982 5.428-7.722 8.39-.556 2.221.238-4.595.722-6.834.946-4.375.222-9.49.222-13.944 0-8.25-3.451 1.174-5.222 4.166-.884 1.494-4.607 10.276-5.722 10.834-3.557 1.778 4.892-9.76 1.5-11.834-3.226-1.971-9.122 10.727-10.334 12.611-1.762 2.741-2.961 5.51-1.444.39.989-3.34-2.08-1.572-3.778-.723-5.216 2.608-5.408 1.626-7.778-4.167-.921-2.25-1.842-3.401-3.666-4.444-2.253-1.287-.689-2.196-3.334.889-1.039 1.212-.89 7.412-2.333 7-3.075-.879-5.278-4.105-7.889-5.556-.825-.458-3.564-.592-4 .39-2.085 4.69-4.363 4.505-9.444 4.388-2.248-.052-23.422-6.993-23.556-2.556-.059 1.96 0 3.93 0 5.89 0 2.11.105-4.226 0-6.334-.142-2.841-5.308-5.305-6.889-7.389-2.803-3.695-2.922-3.778-4.333.278-.331.952-2.636 12.31-3.5 11.778-5.967-3.673-11.3-8.83-17.389-12.556-8.263-5.056-3.624 4.251-1.667 3.889 3.731-.69 6.321-8.028 7.667-11.056 2.64-5.94-4.365 12.372-7.889 17.834-4.461 6.915 1.167-5.308-4.667-4.778-5.124.466-7.227 6.313-12.277 6.944-3.462.433-2.927-1.483-5.056-3.5-5.27-4.992-8.997 9.108-11.222 11.334-.289.289-11.975-15.167-17.778-12.556-5.011 2.255-3.423 11.674-9.778 9.556-5.068-1.69-8.561-6.63-14.555-4.556-3.589 1.243-2.282 1.76-6.945-.889C102.916 21.171 96.374 14.515 92 14c-.81-.095 3.823 2 5.5 2 4.542 0 5.993-1.788 9.722-3.222 5.99-2.304 3.226 2.463 7.778 3.222 4.119.686 11.766 5.648 14 9" stroke="#000" stroke-linecap="round" stroke-linejoin="round"/></svg>