<svg xmlns="http://www.w3.org/2000/svg" xmlns:xlink="http://www.w3.org/1999/xlink" width="50" height="50" viewBox="0 0 37.5 37.5" version="1.2"><defs><symbol overflow="visible" id="a"><path d="M12.719-18.219c-1.48 0-2.637.61-3.469 1.828-.824 1.211-1.234 2.875-1.234 5 0 4.418 1.68 6.625 5.046 6.625 1.008 0 1.993-.14 2.954-.421a28.398 28.398 0 002.875-1.016v5.25C16.973-.11 14.805.312 12.39.312 8.92.313 6.258-.69 4.406-2.703c-1.843-2.008-2.765-4.914-2.765-8.719 0-2.383.445-4.476 1.343-6.281.895-1.8 2.18-3.188 3.86-4.156 1.676-.97 3.656-1.453 5.937-1.453 2.477 0 4.848.542 7.11 1.625L18-16.797a22.66 22.66 0 00-2.563-1 8.545 8.545 0 00-2.718-.422zm0 0"/></symbol></defs><use xlink:href="#a" x="7.778" y="30.36" fill="#dfdfdf"/></svg>