<svg width="400" height="37" fill="none" xmlns="http://www.w3.org/2000/svg"><path d="M1 10.59c2.014 4.95 4.237 19.74 6.222 14.778C8.332 22.593 13 8.008 13 16.534c0 2.293.73 4.667 1.056 6.945.306 2.145 3.196-4.65 3.944-5.445.657-.697 2.44-3.604 2.778-2.777.811 1.992 1.695 3.916 2.555 5.888.334.765.532 5.584 1.278 5.667 3.313.368 3.953-13.077 4.389-5.222.35 6.316 10.724-14.093 10.944-11.111.283 3.82.056 7.723.056 11.555 0 6.183 3.432.137 5.333-2.777 1.782-2.732 4.401-9.31 7.445-11 .154-.086.222 4.218.222 4.333v22.222c0 5.8 4.84-7.281 5.444-8.611.405-.89 5.308-10.733 5.5-9.389.841 5.886 3.927 4.05 7.39-.444.896-1.164 7.55-10.57 7.666-7.89.136 3.124.445 5.002 1.056 7.445 1.334 5.336.767 21.887 6.166 9.889 1.177-2.614 1.502-4.793 3-3.444 2.702 2.431 5.432-5.062 6.667-5.834.134-.084 2.019 5.622 3.611 5.445 2.312-.257 3.374-4.256 6.278-2.39 3.623 2.33 2.002 6.351 6.444 1 1.738-2.093 3.15-4.576 5-6.555 3.209-3.433 2.732 3.336 2.889 4.945.2 2.05 2.415 9.5 5.389 9.5 1.842 0 3.76-5.595 4.5-6.89" stroke="#000" stroke-linecap="round" stroke-linejoin="round"/><path d="M162.094 19.256c.186 1.239.74 13.477 3.722 11.722 5.303-3.12 7.07-9.953 12.056-13.277 1.409-.94 3.28-1.355 4.778-2.112 6.309-3.188 10.23-7.897 15.111-12.777 2.807-2.807 1.919.256 1.222 2-1.973 4.931-4.316 9.795-6.444 14.666-.673 1.538-6.738 13.593-3.334 6.056 1.365-3.021 2.685-5.994 4.834-8.556.335-.4 3.503-5.212 1.611-2.61-2.086 2.867-2.963 6.418-3.334 9.888-.223 2.092.742 6.894-.389 8.778-1.155 1.925-17.397-14.063-19.055-15.445-.598-.498-8.121-2.861-4.167-3.277 3.37-.355 5.94 1.818 8.611 3.5 2.25 1.416 5.647 2.045 8.223 2.389 4.757.634 4.782-1.178 7.888-5.278.382-.504 10.213-14.705 11.612-13.89 3.772 2.201-.289 14.962-.723 18.334-.637 4.96-1.143 19.915-.222 15 .613-3.268 4.188-5.454 5-9.111.269-1.21.583-5.62 2-3.778 3.765 4.895 8.319 4.889 13.278 7.723 4.57 2.611 4.03-3.887 4.5-7.056 1.612-10.88-.354 4.859.222 4.667 5.116-1.706 6.286-9.99 10.222-2.556 1.383 2.613 8.59.687 10.278-.278 1.496-.855 10.766-10.454 6.278-3.722-3.172 4.757-.03 3.363 2.667.667 1.834-1.835 4.22 3.138 4.777 4.555.572 1.455 2.776 6.328 4.945 6.111 4.837-.483 6.078-8.627 10.389-8.888 4.484-.272 8.268-1.058 11.666-5 1.708-1.981 1.778-8.91 1.778-3.445v8c0 3.731 3.511-.245 4.667-1 3.351-2.191 7.122-1.793 7.333 2 .216 3.893 4.827-.996 6.333-.722 1.692.307.434 7.617 2.556 7.055 2.017-.534 5.79-5.384 7.611-4.777 1.793.597 3.615.444 5.5.444 3.213 0 6.496 2.957 9.778 3.778 4.008 1.002 4.989-4.248 7.667-5.778 1.031-.59.414 3.864 1 5 3.129 6.075 8.953-6.105 10.777-7.778 2.172-1.99 4.464 2.802 4.723 4.223.445 2.448.119 2.832 3.166 2.333 5.729-.94 10.08-4.212 13.334-8.945 1.323-1.925 1.555-9.169 1.555-6.833v13.556c0-5.477-1.233-10.487-2.055-15.834-.24-1.554-1.771.714-1.945 1-2.205 3.623-2.574 8.223-4 12.167-.444 1.228-5.801 13.452-2.333 8.333 2.315-3.417 4.628-12.147 8.333-14 3.828-1.914.678 8.94 5 6.778 1.763-.881 5.171-2.49 6.445-3.944.621-.711.555 7.393.555 8.5 0 9.049 6.677.219 10.222-2.556 2.179-1.705-2.642 1.745-3.722 2.945-2.366 2.629-1.5 2.511-1.5-1.5 0-.887 1.011-5.416.389-5.278-2.115.47-4.712 3.643-5.167 5.61-.857 3.718-.222-2.587-.222-3.832v2.833c0 7.467 3.801-5.896 2.556-6.556-9.586-5.074-22.751 7.569-29.889 12.111-8.395 5.343 1.702-10.444-1.667-10.444-.846 0-.549 1.617-1 2.333-.647 1.028-1.491 2.034-1.944 3.167-.823 2.057.339-5.954-1.834-6.389-5.621-1.124-10.041 4.599-10.222 10.556-.047 1.568 2.92-12.244-.222-10.111-2.412 1.636-6.982 5.427-7.722 8.388-.556 2.223.238-4.594.722-6.833.946-4.375.222-9.49.222-13.944 0-8.25-3.451 1.174-5.222 4.166-.884 1.494-4.607 10.276-5.722 10.834-3.557 1.778 4.892-9.76 1.5-11.834-3.226-1.971-9.122 10.727-10.334 12.611-1.762 2.742-2.961 5.51-1.444.39.989-3.34-2.079-1.572-3.778-.723-5.216 2.608-5.408 1.626-7.778-4.167-.92-2.25-1.842-3.401-3.666-4.444-2.253-1.287-.689-2.196-3.334.889-1.039 1.212-.89 7.412-2.333 7-3.075-.879-5.277-4.105-7.889-5.556-.825-.458-3.564-.592-4 .39-2.085 4.69-4.363 4.505-9.444 4.388-2.248-.052-23.421-6.993-23.556-2.555-.059 1.958 0 3.928 0 5.888 0 2.112.106-4.224 0-6.333-.142-2.841-5.308-5.305-6.889-7.389-2.803-3.695-2.922-3.778-4.333.278-.331.952-2.636 12.31-3.5 11.778-5.967-3.672-11.3-8.83-17.389-12.556-8.263-5.056-3.623 4.251-1.667 3.889 3.731-.69 6.321-8.028 7.667-11.056 2.64-5.94-4.365 12.372-7.889 17.834-4.461 6.915 1.167-5.308-4.667-4.778-5.124.466-7.227 6.313-12.277 6.945-3.462.432-2.927-1.484-5.056-3.5-5.269-4.993-8.997 9.107-11.222 11.333-.289.289-11.975-15.167-17.778-12.556-5.011 2.255-3.422 11.674-9.778 9.556-5.067-1.69-8.56-6.63-14.555-4.556-3.589 1.243-2.282 1.76-6.945-.889-3.806-2.162-10.348-8.818-14.722-9.333-.809-.095 3.823 2 5.5 2 4.543 0 5.993-1.788 9.722-3.222 5.99-2.304 3.226 2.463 7.778 3.222 4.119.686 11.766 5.648 14 9" stroke="#000" stroke-linecap="round" stroke-linejoin="round"/></svg>