<svg xmlns="http://www.w3.org/2000/svg" width="500" height="500" viewBox="0 0 375 375" version="1.2"><defs><clipPath id="a"><path d="M103.332 3.563h185.191V258H103.332zm0 0"/></clipPath><clipPath id="b"><path d="M151 115h66v255.7h-66zm0 0"/></clipPath></defs><g clip-path="url(#a)"><path d="M195.922 257.535c-51.137 0-92.59-56.844-92.59-126.96 0-70.118 41.453-126.958 92.59-126.958s92.59 56.84 92.59 126.957c0 70.117-41.453 126.961-92.59 126.961" fill="#365c3b"/></g><g clip-path="url(#b)"><path d="M178.469 370.09c2.992.598 19.156 0 19.156 0s-5.387-99.25 0-130.34c0 0 8.383-27.504 16.164-34.676 0 0 6.586-17.937 0-52.613 0 0-2.394-22.719 0-29.297 0 0-7.184 13.152-4.187 41.254 0 0 6.582 38.863-16.766 56.2 0 0-4.79-83.102-2.395-104.63 0 0-7.183 52.614-5.984 62.18 0 0-14.371-11.957-14.969-62.18 0 0-7.867 51.696 13.77 70.551l2.992 47.234s-23.945-10.765-34.723-49.625c0 0-6.054 38.262 32.594 62.18L178.47 370.09" fill="#4c342d"/></g></svg>